<?xml version="1.0" encoding="iso-8859-1"?>
<!-- Generator: Adobe Illustrator 16.0.0, SVG Export Plug-In . SVG Version: 6.00 Build 0)  -->
<!DOCTYPE svg PUBLIC "-//W3C//DTD SVG 1.1//EN" "http://www.w3.org/Graphics/SVG/1.1/DTD/svg11.dtd">
<svg version="1.1" id="Capa_1" xmlns="http://www.w3.org/2000/svg" xmlns:xlink="http://www.w3.org/1999/xlink" x="0px" y="0px"
	 width="31.281px" height="31.281px" viewBox="0 0 31.281 31.281" style="enable-background:new 0 0 31.281 31.281;"
	 xml:space="preserve">
<g>
	<path d="M27.837,23.016c0.584-2.297-0.021-4.832-1.816-6.629l-0.598-0.604l0.598-0.602c1.866-1.868,2.443-4.537,1.737-6.904
		c1.866-0.422,3.258-2.092,3.258-4.088c0-2.313-1.873-4.189-4.185-4.189c-2.08,0.001-3.805,1.521-4.129,3.511
		c-2.258-0.53-4.729,0.087-6.488,1.849L15.64,5.898L15.066,5.36c-1.76-1.762-4.231-2.379-6.489-1.849
		C8.255,1.52,6.529,0.001,4.449,0C2.137,0,0.265,1.877,0.265,4.189c0,1.997,1.392,3.667,3.258,4.088
		c-0.707,2.367-0.129,5.036,1.737,6.905l0.598,0.6L5.26,16.387c-1.795,1.795-2.4,4.332-1.816,6.627
		c-1.845,0.436-3.218,2.096-3.218,4.078c0,2.312,1.874,4.188,4.185,4.188c1.989,0,3.653-1.387,4.08-3.25
		c2.282,0.568,4.796-0.039,6.578-1.825l0.571-0.572l0.573,0.573c1.782,1.785,4.296,2.393,6.577,1.826
		c0.427,1.861,2.092,3.248,4.08,3.25c2.312,0,4.186-1.875,4.186-4.188C31.056,25.111,29.682,23.449,27.837,23.016z M19.3,8.451
		c1.002-1.002,2.626-1.002,3.629,0.001c1.006,1.008,1.004,2.639,0.005,3.639l-0.584,0.587l-3.675-3.64L19.3,8.451z M8.35,8.452
		c1.003-1.003,2.627-1.003,3.63-0.001l0.624,0.586l-3.675,3.64L8.345,12.09C7.347,11.09,7.345,9.46,8.35,8.452z M11.979,23.115
		c-1,1-2.628,1.003-3.634-0.004c-1.002-1.004-1.003-2.629-0.001-3.633l0.592-0.599l3.629,3.649L11.979,23.115z M15.64,19.425
		l-3.631-3.649l3.59-3.554v0.041l0.041-0.041l0.041,0.041v-0.041l3.59,3.554L15.64,19.425z M22.934,23.111
		c-1.005,1.006-2.634,1.004-3.634,0.002l-0.586-0.586l3.629-3.648l0.592,0.598C23.937,20.48,23.936,22.105,22.934,23.111z"/>
</g>
<g>
</g>
<g>
</g>
<g>
</g>
<g>
</g>
<g>
</g>
<g>
</g>
<g>
</g>
<g>
</g>
<g>
</g>
<g>
</g>
<g>
</g>
<g>
</g>
<g>
</g>
<g>
</g>
<g>
</g>
</svg>
